<mxfile host="app.diagrams.net" agent="Mozilla/5.0 (Windows NT 10.0; Win64; x64) AppleWebKit/537.36 (KHTML, like Gecko) Chrome/128.0.0.0 Safari/537.36" version="24.7.8">
  <diagram name="第 1 页" id="S4U7b3Jsbq-nJOAndCne">
    <mxGraphModel dx="1419" dy="1039" grid="0" gridSize="10" guides="1" tooltips="1" connect="1" arrows="1" fold="1" page="0" pageScale="1" pageWidth="827" pageHeight="1169" math="0" shadow="0">
      <root>
        <mxCell id="0" />
        <mxCell id="1" parent="0" />
        <mxCell id="w4ji9g2y6G3gF-YH9FeV-54" style="edgeStyle=none;curved=1;rounded=0;orthogonalLoop=1;jettySize=auto;html=1;fontSize=12;startSize=8;endSize=8;" parent="1" source="w4ji9g2y6G3gF-YH9FeV-1" target="w4ji9g2y6G3gF-YH9FeV-53" edge="1">
          <mxGeometry relative="1" as="geometry" />
        </mxCell>
        <mxCell id="w4ji9g2y6G3gF-YH9FeV-1" value="opening" style="rounded=0;whiteSpace=wrap;html=1;" parent="1" vertex="1">
          <mxGeometry x="56" y="-123" width="120" height="60" as="geometry" />
        </mxCell>
        <mxCell id="w4ji9g2y6G3gF-YH9FeV-17" style="edgeStyle=none;curved=1;rounded=0;orthogonalLoop=1;jettySize=auto;html=1;entryX=0.5;entryY=0;entryDx=0;entryDy=0;fontSize=12;startSize=8;endSize=8;" parent="1" source="w4ji9g2y6G3gF-YH9FeV-2" target="w4ji9g2y6G3gF-YH9FeV-5" edge="1">
          <mxGeometry relative="1" as="geometry" />
        </mxCell>
        <mxCell id="w4ji9g2y6G3gF-YH9FeV-38" style="edgeStyle=none;curved=1;rounded=0;orthogonalLoop=1;jettySize=auto;html=1;fontSize=12;startSize=8;endSize=8;" parent="1" source="w4ji9g2y6G3gF-YH9FeV-2" target="w4ji9g2y6G3gF-YH9FeV-39" edge="1">
          <mxGeometry relative="1" as="geometry">
            <mxPoint x="-93.23809523809518" y="204.7619047619047" as="targetPoint" />
          </mxGeometry>
        </mxCell>
        <mxCell id="w4ji9g2y6G3gF-YH9FeV-52" style="edgeStyle=none;curved=1;rounded=0;orthogonalLoop=1;jettySize=auto;html=1;fontSize=12;startSize=8;endSize=8;" parent="1" source="w4ji9g2y6G3gF-YH9FeV-2" target="w4ji9g2y6G3gF-YH9FeV-51" edge="1">
          <mxGeometry relative="1" as="geometry" />
        </mxCell>
        <mxCell id="w4ji9g2y6G3gF-YH9FeV-2" value="do what" style="rhombus;whiteSpace=wrap;html=1;" parent="1" vertex="1">
          <mxGeometry x="60" y="88" width="80" height="80" as="geometry" />
        </mxCell>
        <mxCell id="w4ji9g2y6G3gF-YH9FeV-16" style="edgeStyle=none;curved=1;rounded=0;orthogonalLoop=1;jettySize=auto;html=1;fontSize=12;startSize=8;endSize=8;" parent="1" source="w4ji9g2y6G3gF-YH9FeV-5" target="w4ji9g2y6G3gF-YH9FeV-15" edge="1">
          <mxGeometry relative="1" as="geometry" />
        </mxCell>
        <mxCell id="w4ji9g2y6G3gF-YH9FeV-5" value="add vocabulary" style="rounded=0;whiteSpace=wrap;html=1;" parent="1" vertex="1">
          <mxGeometry x="-366" y="99" width="120" height="60" as="geometry" />
        </mxCell>
        <mxCell id="w4ji9g2y6G3gF-YH9FeV-58" style="edgeStyle=none;curved=1;rounded=0;orthogonalLoop=1;jettySize=auto;html=1;entryX=0.5;entryY=0;entryDx=0;entryDy=0;fontSize=12;startSize=8;endSize=8;" parent="1" source="w4ji9g2y6G3gF-YH9FeV-9" target="w4ji9g2y6G3gF-YH9FeV-56" edge="1">
          <mxGeometry relative="1" as="geometry" />
        </mxCell>
        <mxCell id="w4ji9g2y6G3gF-YH9FeV-9" value="quizzes" style="rounded=0;whiteSpace=wrap;html=1;" parent="1" vertex="1">
          <mxGeometry x="32" y="234.76" width="120" height="60" as="geometry" />
        </mxCell>
        <mxCell id="w4ji9g2y6G3gF-YH9FeV-22" style="edgeStyle=none;curved=1;rounded=0;orthogonalLoop=1;jettySize=auto;html=1;fontSize=12;startSize=8;endSize=8;" parent="1" source="w4ji9g2y6G3gF-YH9FeV-15" target="w4ji9g2y6G3gF-YH9FeV-20" edge="1">
          <mxGeometry relative="1" as="geometry" />
        </mxCell>
        <mxCell id="w4ji9g2y6G3gF-YH9FeV-15" value="kind" style="rhombus;whiteSpace=wrap;html=1;" parent="1" vertex="1">
          <mxGeometry x="-352" y="189" width="80" height="80" as="geometry" />
        </mxCell>
        <mxCell id="w4ji9g2y6G3gF-YH9FeV-19" style="edgeStyle=none;curved=1;rounded=0;orthogonalLoop=1;jettySize=auto;html=1;entryX=0.646;entryY=0.017;entryDx=0;entryDy=0;entryPerimeter=0;fontSize=12;startSize=8;endSize=8;" parent="1" source="w4ji9g2y6G3gF-YH9FeV-2" target="w4ji9g2y6G3gF-YH9FeV-9" edge="1">
          <mxGeometry relative="1" as="geometry" />
        </mxCell>
        <mxCell id="w4ji9g2y6G3gF-YH9FeV-25" style="edgeStyle=none;curved=1;rounded=0;orthogonalLoop=1;jettySize=auto;html=1;fontSize=12;startSize=8;endSize=8;" parent="1" source="w4ji9g2y6G3gF-YH9FeV-20" target="w4ji9g2y6G3gF-YH9FeV-24" edge="1">
          <mxGeometry relative="1" as="geometry" />
        </mxCell>
        <mxCell id="w4ji9g2y6G3gF-YH9FeV-20" value="type word" style="rounded=0;whiteSpace=wrap;html=1;" parent="1" vertex="1">
          <mxGeometry x="-475" y="294" width="120" height="60" as="geometry" />
        </mxCell>
        <mxCell id="w4ji9g2y6G3gF-YH9FeV-24" value="type vocabulary" style="rounded=0;whiteSpace=wrap;html=1;" parent="1" vertex="1">
          <mxGeometry x="-475" y="379" width="120" height="60" as="geometry" />
        </mxCell>
        <mxCell id="w4ji9g2y6G3gF-YH9FeV-26" style="edgeStyle=none;curved=1;rounded=0;orthogonalLoop=1;jettySize=auto;html=1;fontSize=12;startSize=8;endSize=8;" parent="1" target="w4ji9g2y6G3gF-YH9FeV-27" edge="1">
          <mxGeometry relative="1" as="geometry">
            <mxPoint x="-415" y="442" as="sourcePoint" />
          </mxGeometry>
        </mxCell>
        <mxCell id="w4ji9g2y6G3gF-YH9FeV-27" value="type translation" style="rounded=0;whiteSpace=wrap;html=1;" parent="1" vertex="1">
          <mxGeometry x="-475" y="467" width="120" height="60" as="geometry" />
        </mxCell>
        <mxCell id="w4ji9g2y6G3gF-YH9FeV-120" style="edgeStyle=none;curved=1;rounded=0;orthogonalLoop=1;jettySize=auto;html=1;entryX=0.5;entryY=0;entryDx=0;entryDy=0;fontSize=12;startSize=8;endSize=8;" parent="1" source="w4ji9g2y6G3gF-YH9FeV-33" target="w4ji9g2y6G3gF-YH9FeV-119" edge="1">
          <mxGeometry relative="1" as="geometry" />
        </mxCell>
        <mxCell id="w4ji9g2y6G3gF-YH9FeV-33" value="import by txt&amp;nbsp;" style="rounded=0;whiteSpace=wrap;html=1;" parent="1" vertex="1">
          <mxGeometry x="-296" y="299" width="120" height="60" as="geometry" />
        </mxCell>
        <mxCell id="w4ji9g2y6G3gF-YH9FeV-34" style="edgeStyle=none;curved=1;rounded=0;orthogonalLoop=1;jettySize=auto;html=1;entryX=0.587;entryY=0.017;entryDx=0;entryDy=0;entryPerimeter=0;fontSize=12;startSize=8;endSize=8;" parent="1" source="w4ji9g2y6G3gF-YH9FeV-15" target="w4ji9g2y6G3gF-YH9FeV-33" edge="1">
          <mxGeometry relative="1" as="geometry" />
        </mxCell>
        <mxCell id="w4ji9g2y6G3gF-YH9FeV-125" value="" style="edgeStyle=none;curved=1;rounded=0;orthogonalLoop=1;jettySize=auto;html=1;fontSize=12;startSize=8;endSize=8;" parent="1" source="w4ji9g2y6G3gF-YH9FeV-39" target="w4ji9g2y6G3gF-YH9FeV-124" edge="1">
          <mxGeometry relative="1" as="geometry" />
        </mxCell>
        <mxCell id="w4ji9g2y6G3gF-YH9FeV-39" value="my vocabularys" style="rounded=0;whiteSpace=wrap;html=1;" parent="1" vertex="1">
          <mxGeometry x="-153.23809523809518" y="174.7619047619047" width="120" height="60" as="geometry" />
        </mxCell>
        <mxCell id="w4ji9g2y6G3gF-YH9FeV-69" style="edgeStyle=none;curved=1;rounded=0;orthogonalLoop=1;jettySize=auto;html=1;entryX=0;entryY=0.5;entryDx=0;entryDy=0;fontSize=12;startSize=8;endSize=8;" parent="1" source="w4ji9g2y6G3gF-YH9FeV-51" target="w4ji9g2y6G3gF-YH9FeV-68" edge="1">
          <mxGeometry relative="1" as="geometry" />
        </mxCell>
        <mxCell id="w4ji9g2y6G3gF-YH9FeV-51" value="email remider" style="rounded=0;whiteSpace=wrap;html=1;" parent="1" vertex="1">
          <mxGeometry x="198" y="153" width="120" height="60" as="geometry" />
        </mxCell>
        <mxCell id="w4ji9g2y6G3gF-YH9FeV-55" style="edgeStyle=none;curved=1;rounded=0;orthogonalLoop=1;jettySize=auto;html=1;exitX=0.5;exitY=1;exitDx=0;exitDy=0;entryX=0.5;entryY=0;entryDx=0;entryDy=0;fontSize=12;startSize=8;endSize=8;" parent="1" source="w4ji9g2y6G3gF-YH9FeV-53" target="w4ji9g2y6G3gF-YH9FeV-2" edge="1">
          <mxGeometry relative="1" as="geometry" />
        </mxCell>
        <mxCell id="w4ji9g2y6G3gF-YH9FeV-53" value="choose langrages" style="rhombus;whiteSpace=wrap;html=1;" parent="1" vertex="1">
          <mxGeometry x="66" y="-19" width="142" height="80" as="geometry" />
        </mxCell>
        <mxCell id="w4ji9g2y6G3gF-YH9FeV-64" style="edgeStyle=none;curved=1;rounded=0;orthogonalLoop=1;jettySize=auto;html=1;entryX=0.5;entryY=0;entryDx=0;entryDy=0;fontSize=12;startSize=8;endSize=8;" parent="1" source="w4ji9g2y6G3gF-YH9FeV-56" target="w4ji9g2y6G3gF-YH9FeV-60" edge="1">
          <mxGeometry relative="1" as="geometry" />
        </mxCell>
        <mxCell id="w4ji9g2y6G3gF-YH9FeV-65" style="edgeStyle=none;curved=1;rounded=0;orthogonalLoop=1;jettySize=auto;html=1;entryX=0.5;entryY=0;entryDx=0;entryDy=0;fontSize=12;startSize=8;endSize=8;" parent="1" source="w4ji9g2y6G3gF-YH9FeV-56" target="w4ji9g2y6G3gF-YH9FeV-63" edge="1">
          <mxGeometry relative="1" as="geometry" />
        </mxCell>
        <mxCell id="w4ji9g2y6G3gF-YH9FeV-56" value="choose" style="rounded=0;whiteSpace=wrap;html=1;" parent="1" vertex="1">
          <mxGeometry x="-44" y="334" width="120" height="60" as="geometry" />
        </mxCell>
        <mxCell id="w4ji9g2y6G3gF-YH9FeV-66" style="edgeStyle=none;curved=1;rounded=0;orthogonalLoop=1;jettySize=auto;html=1;fontSize=12;startSize=8;endSize=8;" parent="1" source="w4ji9g2y6G3gF-YH9FeV-57" target="w4ji9g2y6G3gF-YH9FeV-62" edge="1">
          <mxGeometry relative="1" as="geometry" />
        </mxCell>
        <mxCell id="w4ji9g2y6G3gF-YH9FeV-57" value="write" style="rounded=0;whiteSpace=wrap;html=1;" parent="1" vertex="1">
          <mxGeometry x="134" y="331" width="120" height="60" as="geometry" />
        </mxCell>
        <mxCell id="w4ji9g2y6G3gF-YH9FeV-59" style="edgeStyle=none;curved=1;rounded=0;orthogonalLoop=1;jettySize=auto;html=1;entryX=0.403;entryY=0.015;entryDx=0;entryDy=0;entryPerimeter=0;fontSize=12;startSize=8;endSize=8;" parent="1" source="w4ji9g2y6G3gF-YH9FeV-9" target="w4ji9g2y6G3gF-YH9FeV-57" edge="1">
          <mxGeometry relative="1" as="geometry" />
        </mxCell>
        <mxCell id="w4ji9g2y6G3gF-YH9FeV-60" value="choose vocation" style="rounded=0;whiteSpace=wrap;html=1;" parent="1" vertex="1">
          <mxGeometry x="-138" y="429" width="120" height="60" as="geometry" />
        </mxCell>
        <mxCell id="w4ji9g2y6G3gF-YH9FeV-61" value="write translation" style="rounded=0;whiteSpace=wrap;html=1;" parent="1" vertex="1">
          <mxGeometry x="330" y="417" width="120" height="60" as="geometry" />
        </mxCell>
        <mxCell id="w4ji9g2y6G3gF-YH9FeV-62" value="write vocabulary" style="rounded=0;whiteSpace=wrap;html=1;" parent="1" vertex="1">
          <mxGeometry x="162" y="423" width="120" height="60" as="geometry" />
        </mxCell>
        <mxCell id="w4ji9g2y6G3gF-YH9FeV-63" value="choose translation" style="rounded=0;whiteSpace=wrap;html=1;" parent="1" vertex="1">
          <mxGeometry x="20" y="429" width="120" height="60" as="geometry" />
        </mxCell>
        <mxCell id="w4ji9g2y6G3gF-YH9FeV-67" style="edgeStyle=none;curved=1;rounded=0;orthogonalLoop=1;jettySize=auto;html=1;entryX=0.334;entryY=0.063;entryDx=0;entryDy=0;entryPerimeter=0;fontSize=12;startSize=8;endSize=8;" parent="1" source="w4ji9g2y6G3gF-YH9FeV-57" target="w4ji9g2y6G3gF-YH9FeV-61" edge="1">
          <mxGeometry relative="1" as="geometry" />
        </mxCell>
        <mxCell id="w4ji9g2y6G3gF-YH9FeV-71" style="edgeStyle=none;curved=1;rounded=0;orthogonalLoop=1;jettySize=auto;html=1;entryX=0;entryY=0.5;entryDx=0;entryDy=0;fontSize=12;startSize=8;endSize=8;" parent="1" source="w4ji9g2y6G3gF-YH9FeV-68" target="w4ji9g2y6G3gF-YH9FeV-70" edge="1">
          <mxGeometry relative="1" as="geometry" />
        </mxCell>
        <mxCell id="w4ji9g2y6G3gF-YH9FeV-73" style="edgeStyle=none;curved=1;rounded=0;orthogonalLoop=1;jettySize=auto;html=1;entryX=0;entryY=0.5;entryDx=0;entryDy=0;fontSize=12;startSize=8;endSize=8;" parent="1" source="w4ji9g2y6G3gF-YH9FeV-68" target="w4ji9g2y6G3gF-YH9FeV-72" edge="1">
          <mxGeometry relative="1" as="geometry" />
        </mxCell>
        <mxCell id="w4ji9g2y6G3gF-YH9FeV-68" value="do what" style="rhombus;whiteSpace=wrap;html=1;" parent="1" vertex="1">
          <mxGeometry x="358" y="140" width="80" height="80" as="geometry" />
        </mxCell>
        <mxCell id="w4ji9g2y6G3gF-YH9FeV-103" value="" style="edgeStyle=none;curved=1;rounded=0;orthogonalLoop=1;jettySize=auto;html=1;fontSize=12;startSize=8;endSize=8;" parent="1" source="w4ji9g2y6G3gF-YH9FeV-70" target="w4ji9g2y6G3gF-YH9FeV-102" edge="1">
          <mxGeometry relative="1" as="geometry" />
        </mxCell>
        <mxCell id="w4ji9g2y6G3gF-YH9FeV-70" value="add one" style="rounded=0;whiteSpace=wrap;html=1;" parent="1" vertex="1">
          <mxGeometry x="482" y="28" width="120" height="60" as="geometry" />
        </mxCell>
        <mxCell id="w4ji9g2y6G3gF-YH9FeV-78" style="edgeStyle=none;curved=1;rounded=0;orthogonalLoop=1;jettySize=auto;html=1;entryX=0;entryY=0.5;entryDx=0;entryDy=0;fontSize=12;startSize=8;endSize=8;" parent="1" source="w4ji9g2y6G3gF-YH9FeV-72" target="w4ji9g2y6G3gF-YH9FeV-77" edge="1">
          <mxGeometry relative="1" as="geometry" />
        </mxCell>
        <mxCell id="w4ji9g2y6G3gF-YH9FeV-72" value="edit one" style="rounded=0;whiteSpace=wrap;html=1;" parent="1" vertex="1">
          <mxGeometry x="482" y="199" width="120" height="60" as="geometry" />
        </mxCell>
        <mxCell id="w4ji9g2y6G3gF-YH9FeV-85" style="edgeStyle=none;curved=1;rounded=0;orthogonalLoop=1;jettySize=auto;html=1;entryX=0;entryY=0.5;entryDx=0;entryDy=0;fontSize=12;startSize=8;endSize=8;" parent="1" source="w4ji9g2y6G3gF-YH9FeV-77" target="w4ji9g2y6G3gF-YH9FeV-83" edge="1">
          <mxGeometry relative="1" as="geometry" />
        </mxCell>
        <mxCell id="w4ji9g2y6G3gF-YH9FeV-77" value="choose" style="rounded=0;whiteSpace=wrap;html=1;" parent="1" vertex="1">
          <mxGeometry x="639" y="199" width="120" height="60" as="geometry" />
        </mxCell>
        <mxCell id="w4ji9g2y6G3gF-YH9FeV-114" value="" style="edgeStyle=none;curved=1;rounded=0;orthogonalLoop=1;jettySize=auto;html=1;fontSize=12;startSize=8;endSize=8;" parent="1" source="w4ji9g2y6G3gF-YH9FeV-83" target="w4ji9g2y6G3gF-YH9FeV-113" edge="1">
          <mxGeometry relative="1" as="geometry" />
        </mxCell>
        <mxCell id="w4ji9g2y6G3gF-YH9FeV-83" value="show imformation of it" style="rounded=0;whiteSpace=wrap;html=1;" parent="1" vertex="1">
          <mxGeometry x="803" y="199" width="120" height="60" as="geometry" />
        </mxCell>
        <mxCell id="w4ji9g2y6G3gF-YH9FeV-105" value="" style="edgeStyle=none;curved=1;rounded=0;orthogonalLoop=1;jettySize=auto;html=1;fontSize=12;startSize=8;endSize=8;" parent="1" source="w4ji9g2y6G3gF-YH9FeV-102" target="w4ji9g2y6G3gF-YH9FeV-104" edge="1">
          <mxGeometry relative="1" as="geometry" />
        </mxCell>
        <mxCell id="w4ji9g2y6G3gF-YH9FeV-102" value="type reminder name" style="rounded=0;whiteSpace=wrap;html=1;" parent="1" vertex="1">
          <mxGeometry x="689" y="-61" width="120" height="60" as="geometry" />
        </mxCell>
        <mxCell id="w4ji9g2y6G3gF-YH9FeV-104" value="type imformation" style="whiteSpace=wrap;html=1;rounded=0;" parent="1" vertex="1">
          <mxGeometry x="872" y="-68" width="120" height="60" as="geometry" />
        </mxCell>
        <mxCell id="w4ji9g2y6G3gF-YH9FeV-110" value="1.email address&amp;nbsp;&lt;div&gt;2.how often&lt;/div&gt;" style="whiteSpace=wrap;html=1;aspect=fixed;" parent="1" vertex="1">
          <mxGeometry x="851" y="-288" width="157" height="157" as="geometry" />
        </mxCell>
        <mxCell id="w4ji9g2y6G3gF-YH9FeV-112" value="" style="endArrow=none;dashed=1;html=1;dashPattern=1 3;strokeWidth=2;rounded=0;fontSize=12;startSize=8;endSize=8;curved=1;exitX=0.5;exitY=0;exitDx=0;exitDy=0;entryX=0.5;entryY=1;entryDx=0;entryDy=0;" parent="1" source="w4ji9g2y6G3gF-YH9FeV-104" target="w4ji9g2y6G3gF-YH9FeV-110" edge="1">
          <mxGeometry width="50" height="50" relative="1" as="geometry">
            <mxPoint x="1000" y="81" as="sourcePoint" />
            <mxPoint x="1050" y="31" as="targetPoint" />
          </mxGeometry>
        </mxCell>
        <mxCell id="w4ji9g2y6G3gF-YH9FeV-113" value="bush button to edit" style="whiteSpace=wrap;html=1;rounded=0;" parent="1" vertex="1">
          <mxGeometry x="995" y="199" width="120" height="60" as="geometry" />
        </mxCell>
        <mxCell id="w4ji9g2y6G3gF-YH9FeV-118" style="edgeStyle=none;curved=1;rounded=0;orthogonalLoop=1;jettySize=auto;html=1;entryX=0;entryY=0.5;entryDx=0;entryDy=0;fontSize=12;startSize=8;endSize=8;" parent="1" source="w4ji9g2y6G3gF-YH9FeV-27" target="w4ji9g2y6G3gF-YH9FeV-15" edge="1">
          <mxGeometry relative="1" as="geometry">
            <mxPoint x="-408" y="467" as="sourcePoint" />
            <mxPoint x="-352" y="229" as="targetPoint" />
            <Array as="points">
              <mxPoint x="-724" y="357" />
            </Array>
          </mxGeometry>
        </mxCell>
        <mxCell id="w4ji9g2y6G3gF-YH9FeV-123" style="edgeStyle=none;curved=1;rounded=0;orthogonalLoop=1;jettySize=auto;html=1;entryX=1;entryY=0.5;entryDx=0;entryDy=0;fontSize=12;startSize=8;endSize=8;" parent="1" source="w4ji9g2y6G3gF-YH9FeV-119" target="w4ji9g2y6G3gF-YH9FeV-15" edge="1">
          <mxGeometry relative="1" as="geometry">
            <Array as="points">
              <mxPoint x="-45" y="301" />
            </Array>
          </mxGeometry>
        </mxCell>
        <mxCell id="w4ji9g2y6G3gF-YH9FeV-119" value="type address of .txt file" style="rounded=0;whiteSpace=wrap;html=1;" parent="1" vertex="1">
          <mxGeometry x="-296" y="391" width="120" height="60" as="geometry" />
        </mxCell>
        <mxCell id="bC9DO_WaksdD6POz2v0B-1" style="edgeStyle=none;curved=1;rounded=0;orthogonalLoop=1;jettySize=auto;html=1;entryX=0.5;entryY=0;entryDx=0;entryDy=0;fontSize=12;startSize=8;endSize=8;" edge="1" parent="1" source="w4ji9g2y6G3gF-YH9FeV-124" target="w4ji9g2y6G3gF-YH9FeV-127">
          <mxGeometry relative="1" as="geometry" />
        </mxCell>
        <mxCell id="w4ji9g2y6G3gF-YH9FeV-124" value="choose from file explorer" style="whiteSpace=wrap;html=1;rounded=0;" parent="1" vertex="1">
          <mxGeometry x="-236.99809523809517" y="543.0019047619047" width="120" height="60" as="geometry" />
        </mxCell>
        <mxCell id="w4ji9g2y6G3gF-YH9FeV-126" value="" style="endArrow=none;dashed=1;html=1;dashPattern=1 3;strokeWidth=2;rounded=0;fontSize=12;startSize=8;endSize=8;curved=1;" parent="1" edge="1">
          <mxGeometry width="50" height="50" relative="1" as="geometry">
            <mxPoint x="858" y="197" as="sourcePoint" />
            <mxPoint x="931" y="-125" as="targetPoint" />
            <Array as="points">
              <mxPoint x="1172" y="-51" />
            </Array>
          </mxGeometry>
        </mxCell>
        <mxCell id="w4ji9g2y6G3gF-YH9FeV-127" value="show vocabularys" style="rounded=0;whiteSpace=wrap;html=1;" parent="1" vertex="1">
          <mxGeometry x="-240" y="641" width="120" height="60" as="geometry" />
        </mxCell>
      </root>
    </mxGraphModel>
  </diagram>
</mxfile>
